# xmcd
#
# Track frame offsets:
#	150
#	16987
#	28888
#	39435
#	56242
#	71390
#	87283
#	98007
#	110377
#	123773
#	141493
#	156752
#	169308
#	181835
#	201465
#
# Disc length: 2962 seconds
#
# Revision: 0
# Processed by: cddbd v1.5.2PL0 Copyright (c) Steve Scherf et al.
# Submitted via: audiograbber 1.83.01
#
DISCID=cd0b900f
DTITLE=Detour - Radio Hill
DYEAR=2007
DGENRE=Bluegrass
TTITLE0=Train Train, Roll On By
TTITLE1=Evangeline
TTITLE2=Emma's Gone
TTITLE3=Radio Hill
TTITLE4=Winds of Winfield
TTITLE5=Sunny Side of the Mountain
TTITLE6=Handsome Molly
TTITLE7=Little Glass of Wine
TTITLE8=No Mon
TTITLE9=On My Knees
TTITLE10=Get Together
TTITLE11=John Hardy
TTITLE12=When It Rains in the Mountains
TTITLE13=Darlin' Corey
TTITLE14=People Get Ready
EXTD=
EXTT0=
EXTT1=
EXTT2=
EXTT3=
EXTT4=
EXTT5=
EXTT6=
EXTT7=
EXTT8=
EXTT9=
EXTT10=
EXTT11=
EXTT12=
EXTT13=
EXTT14=
PLAYORDER=
